<svg width="0" height="0" class="hidden">
  <symbol fill="none" xmlns="http://www.w3.org/2000/svg" viewBox="0 0 24 24" id="instagram-svgrepo-com">
    <path fill-rule="evenodd" clip-rule="evenodd" d="M12 18C15.3137 18 18 15.3137 18 12C18 8.68629 15.3137 6 12 6C8.68629 6 6 8.68629 6 12C6 15.3137 8.68629 18 12 18ZM12 16C14.2091 16 16 14.2091 16 12C16 9.79086 14.2091 8 12 8C9.79086 8 8 9.79086 8 12C8 14.2091 9.79086 16 12 16Z" fill="#0F0F0F"></path>
    <path d="M18 5C17.4477 5 17 5.44772 17 6C17 6.55228 17.4477 7 18 7C18.5523 7 19 6.55228 19 6C19 5.44772 18.5523 5 18 5Z" fill="#0F0F0F"></path>
    <path fill-rule="evenodd" clip-rule="evenodd" d="M1.65396 4.27606C1 5.55953 1 7.23969 1 10.6V13.4C1 16.7603 1 18.4405 1.65396 19.7239C2.2292 20.8529 3.14708 21.7708 4.27606 22.346C5.55953 23 7.23969 23 10.6 23H13.4C16.7603 23 18.4405 23 19.7239 22.346C20.8529 21.7708 21.7708 20.8529 22.346 19.7239C23 18.4405 23 16.7603 23 13.4V10.6C23 7.23969 23 5.55953 22.346 4.27606C21.7708 3.14708 20.8529 2.2292 19.7239 1.65396C18.4405 1 16.7603 1 13.4 1H10.6C7.23969 1 5.55953 1 4.27606 1.65396C3.14708 2.2292 2.2292 3.14708 1.65396 4.27606ZM13.4 3H10.6C8.88684 3 7.72225 3.00156 6.82208 3.0751C5.94524 3.14674 5.49684 3.27659 5.18404 3.43597C4.43139 3.81947 3.81947 4.43139 3.43597 5.18404C3.27659 5.49684 3.14674 5.94524 3.0751 6.82208C3.00156 7.72225 3 8.88684 3 10.6V13.4C3 15.1132 3.00156 16.2777 3.0751 17.1779C3.14674 18.0548 3.27659 18.5032 3.43597 18.816C3.81947 19.5686 4.43139 20.1805 5.18404 20.564C5.49684 20.7234 5.94524 20.8533 6.82208 20.9249C7.72225 20.9984 8.88684 21 10.6 21H13.4C15.1132 21 16.2777 20.9984 17.1779 20.9249C18.0548 20.8533 18.5032 20.7234 18.816 20.564C19.5686 20.1805 20.1805 19.5686 20.564 18.816C20.7234 18.5032 20.8533 18.0548 20.9249 17.1779C20.9984 16.2777 21 15.1132 21 13.4V10.6C21 8.88684 20.9984 7.72225 20.9249 6.82208C20.8533 5.94524 20.7234 5.49684 20.564 5.18404C20.1805 4.43139 19.5686 3.81947 18.816 3.43597C18.5032 3.27659 18.0548 3.14674 17.1779 3.0751C16.2777 3.00156 15.1132 3 13.4 3Z" fill="#0F0F0F"></path>
  </symbol>
  <symbol xmlns="http://www.w3.org/2000/svg" xmlns:xlink="http://www.w3.org/1999/xlink" preserveAspectRatio="xMidYMid" viewBox="-33 0 255 255" id="fire-svgrepo-com">
    <defs>
      <linearGradient id="linear-gradient-1" gradientUnits="userSpaceOnUse" x1="94.141" y1="255" x2="94.141" y2="0.188">
        <stop offset="0" stop-color="#ff4c0d"></stop>
        <stop offset="1" stop-color="#fc9502"></stop>
      </linearGradient>
    </defs>
    <g id="fire">
      <path d="M187.899,164.809 C185.803,214.868 144.574,254.812 94.000,254.812 C42.085,254.812 -0.000,211.312 -0.000,160.812 C-0.000,154.062 -0.121,140.572 10.000,117.812 C16.057,104.191 19.856,95.634 22.000,87.812 C23.178,83.513 25.469,76.683 32.000,87.812 C35.851,94.374 36.000,103.812 36.000,103.812 C36.000,103.812 50.328,92.817 60.000,71.812 C74.179,41.019 62.866,22.612 59.000,9.812 C57.662,5.384 56.822,-2.574 66.000,0.812 C75.352,4.263 100.076,21.570 113.000,39.812 C131.445,65.847 138.000,90.812 138.000,90.812 C138.000,90.812 143.906,83.482 146.000,75.812 C148.365,67.151 148.400,58.573 155.999,67.813 C163.226,76.600 173.959,93.113 180.000,108.812 C190.969,137.321 187.899,164.809 187.899,164.809 Z" id="path-1" fill-rule="evenodd"></path>
      <path d="M94.000,254.812 C58.101,254.812 29.000,225.711 29.000,189.812 C29.000,168.151 37.729,155.000 55.896,137.166 C67.528,125.747 78.415,111.722 83.042,102.172 C83.953,100.292 86.026,90.495 94.019,101.966 C98.212,107.982 104.785,118.681 109.000,127.812 C116.266,143.555 118.000,158.812 118.000,158.812 C118.000,158.812 125.121,154.616 130.000,143.812 C131.573,140.330 134.753,127.148 143.643,140.328 C150.166,150.000 159.127,167.390 159.000,189.812 C159.000,225.711 129.898,254.812 94.000,254.812 Z" id="path-2" fill-rule="evenodd"></path>
      <path d="M95.000,183.812 C104.250,183.812 104.250,200.941 116.000,223.812 C123.824,239.041 112.121,254.812 95.000,254.812 C77.879,254.812 69.000,240.933 69.000,223.812 C69.000,206.692 85.750,183.812 95.000,183.812 Z" id="path-3" fill-rule="evenodd"></path>
    </g>
  </symbol>
  <symbol xmlns="http://www.w3.org/2000/svg" xmlns:xlink="http://www.w3.org/1999/xlink" aria-label="TikTok" role="img" viewBox="0 0 512 512" id="tiktok-svgrepo-com">
    <rect rx="15%" height="512" width="512" fill="#ffffff"></rect>
    <defs>
      <path id="t" d="M219 200a117 117 0 1 0 101 115v-128a150 150 0 0 0 88 28v-63a88 88 0 0 1-88-88h-64v252a54 54 0 1 1-37-51z"></path>
    </defs>
    <use href="#t" fill="#f05" x="18" y="15"></use>
    <use href="#t" fill="#0ee"></use>
  </symbol>
  <symbol version="1.1" xmlns="http://www.w3.org/2000/svg" xmlns:xlink="http://www.w3.org/1999/xlink" viewBox="0 -7 48 48" id="youtube-color-svgrepo-com">
    <title>Youtube-color</title>
    <desc>Created with Sketch.</desc>
    <defs></defs>
    <g id="Icons" stroke="none" stroke-width="1" fill="none" fill-rule="evenodd">
      <g id="Color-" transform="translate(-200.000000, -368.000000)" fill="#CE1312">
        <path d="M219.044,391.269916 L219.0425,377.687742 L232.0115,384.502244 L219.044,391.269916 Z M247.52,375.334163 C247.52,375.334163 247.0505,372.003199 245.612,370.536366 C243.7865,368.610299 241.7405,368.601235 240.803,368.489448 C234.086,368 224.0105,368 224.0105,368 L223.9895,368 C223.9895,368 213.914,368 207.197,368.489448 C206.258,368.601235 204.2135,368.610299 202.3865,370.536366 C200.948,372.003199 200.48,375.334163 200.48,375.334163 C200.48,375.334163 200,379.246723 200,383.157773 L200,386.82561 C200,390.73817 200.48,394.64922 200.48,394.64922 C200.48,394.64922 200.948,397.980184 202.3865,399.447016 C204.2135,401.373084 206.612,401.312658 207.68,401.513574 C211.52,401.885191 224,402 224,402 C224,402 234.086,401.984894 240.803,401.495446 C241.7405,401.382148 243.7865,401.373084 245.612,399.447016 C247.0505,397.980184 247.52,394.64922 247.52,394.64922 C247.52,394.64922 248,390.73817 248,386.82561 L248,383.157773 C248,379.246723 247.52,375.334163 247.52,375.334163 L247.52,375.334163 Z" id="Youtube"></path>
      </g>
    </g>
  </symbol>
  <symbol version="1.1" xml:space="preserve" xmlns="http://www.w3.org/2000/svg" xmlns:xlink="http://www.w3.org/1999/xlink" viewBox="0 0 100 100" id="telegram-communication-chat-interaction-network-connection-svgrepo-com">
    <g id="Layer_1"></g>
    <g id="Layer_2">
      <g>
        <path d="M88.723,12.142C76.419,17.238,23.661,39.091,9.084,45.047c-9.776,3.815-4.053,7.392-4.053,7.392    s8.345,2.861,15.499,5.007c7.153,2.146,10.968-0.238,10.968-0.238l33.62-22.652c11.922-8.107,9.061-1.431,6.199,1.431    c-6.199,6.2-16.452,15.975-25.036,23.844c-3.815,3.338-1.908,6.199-0.238,7.63c6.199,5.246,23.129,15.976,24.082,16.691    c5.037,3.566,14.945,8.699,16.452-2.146c0,0,5.961-37.435,5.961-37.435c1.908-12.637,3.815-24.321,4.053-27.659    C97.307,8.804,88.723,12.142,88.723,12.142z"></path>
      </g>
    </g>
  </symbol>
</svg>